<svg width="400" height="300" viewBox="0 0 400 300" fill="none" xmlns="http://www.w3.org/2000/svg">
  <rect width="400" height="300" fill="url(#gradient3)"/>
  <defs>
    <linearGradient id="gradient3" x1="0%" y1="0%" x2="100%" y2="100%">
      <stop offset="0%" style="stop-color:#00B894;stop-opacity:1" />
      <stop offset="100%" style="stop-color:#00CEC9;stop-opacity:1" />
    </linearGradient>
  </defs>
  <!-- Mobile Health App -->
  <g transform="translate(100, 30)">
    <!-- Phone outline -->
    <rect x="50" y="20" width="100" height="180" rx="20" fill="rgba(255,255,255,0.1)" stroke="rgba(255,255,255,0.4)" stroke-width="3"/>
    <rect x="60" y="40" width="80" height="140" rx="8" fill="rgba(255,255,255,0.05)"/>
    <!-- Screen content -->
    <!-- Header -->
    <rect x="65" y="45" width="70" height="15" rx="4" fill="rgba(255,255,255,0.3)"/>
    <!-- Heart rate monitor -->
    <circle cx="100" cy="90" r="25" fill="rgba(255,255,255,0.2)" stroke="rgba(255,255,255,0.6)" stroke-width="2"/>
    <path d="M85 90L90 85L95 95L105 75L110 95L115 90" stroke="rgba(255,255,255,0.8)" stroke-width="2" fill="none"/>
    <!-- Health metrics -->
    <rect x="70" y="125" width="25" height="15" rx="3" fill="rgba(255,255,255,0.3)"/>
    <rect x="105" y="125" width="25" height="15" rx="3" fill="rgba(255,255,255,0.3)"/>
    <rect x="70" y="145" width="25" height="15" rx="3" fill="rgba(255,255,255,0.3)"/>
    <rect x="105" y="145" width="25" height="15" rx="3" fill="rgba(255,255,255,0.3)"/>
    <!-- Bottom navigation -->
    <rect x="65" y="170" width="70" height="8" rx="4" fill="rgba(255,255,255,0.2)"/>
    <!-- Medical cross -->
    <rect x="97" y="235" width="6" height="20" fill="rgba(255,255,255,0.8)"/>
    <rect x="90" y="242" width="20" height="6" fill="rgba(255,255,255,0.8)"/>
  </g>
  <!-- Title overlay -->
  <rect x="0" y="240" width="400" height="60" fill="rgba(0,0,0,0.6)"/>
  <text x="200" y="265" text-anchor="middle" fill="white" font-family="Arial, sans-serif" font-size="16" font-weight="bold">App Móvil de Salud</text>
  <text x="200" y="285" text-anchor="middle" fill="rgba(255,255,255,0.8)" font-family="Arial, sans-serif" font-size="12">Monitoreo con IA</text>
</svg>
